<?xml version="1.0" encoding="utf-8"?>
<!-- Generator: Adobe Illustrator 23.0.0, SVG Export Plug-In . SVG Version: 6.00 Build 0)  -->
<svg version="1.1" id="Calque_1" xmlns="http://www.w3.org/2000/svg" xmlns:xlink="http://www.w3.org/1999/xlink" x="0px" y="0px"
	 viewBox="0 0 50 48.52" style="enable-background:new 0 0 50 48.52;" xml:space="preserve">
<style type="text/css">
	.st0{fill:#565656;}
</style>
<g id="Multicolor">
	<g>
		<path class="st0" d="M44.44,0L20.93,18.22c-1.66-0.6-3.44-0.94-5.31-0.94C7,17.27,0,24.27,0,32.9c0,8.63,7,15.63,15.62,15.63
			c8.63,0,15.62-7,15.62-15.63c0-1.87-0.34-3.65-0.94-5.3l1.12,0.1l-0.17-7.29h6.25v-6.25h6.25V7.9H50V0H44.44z M19.21,40.09
			c-0.16,0.75-0.68,1.36-1.39,1.64c-2.84,1.11-6.19,0.52-8.48-1.77c-2.29-2.29-2.88-5.64-1.77-8.48c0.28-0.71,0.9-1.23,1.64-1.39
			c0.75-0.16,1.52,0.08,2.06,0.61l7.32,7.32C19.14,38.57,19.37,39.34,19.21,40.09z"/>
	</g>
</g>
</svg>
